<?xml version="1.0" encoding="utf-8"?>
<!-- Generator: Adobe Illustrator 24.3.0, SVG Export Plug-In . SVG Version: 6.00 Build 0)  -->
<svg version="1.1" xmlns="http://www.w3.org/2000/svg" xmlns:xlink="http://www.w3.org/1999/xlink" x="0px" y="0px"
	 viewBox="0 0 500 500" style="enable-background:new 0 0 500 500;" xml:space="preserve">
<style type="text/css">
	.st0{opacity:0.7;fill:#FFFFFF;}
	.st1{fill:#92E3A9;}
	.st2{fill:none;stroke:#263238;stroke-linecap:round;stroke-linejoin:round;}
	.st3{fill:none;stroke:#263238;stroke-linecap:round;stroke-linejoin:round;stroke-dasharray:5.5887,5.5887;}
	.st4{fill:none;stroke:#263238;stroke-linecap:round;stroke-linejoin:round;stroke-miterlimit:10;stroke-dasharray:6;}
	.st5{fill:none;stroke:#263238;stroke-linecap:round;stroke-linejoin:round;stroke-miterlimit:10;}
	.st6{fill:#757575;stroke:#263238;stroke-linecap:round;stroke-linejoin:round;stroke-miterlimit:10;}
	.st7{fill:#92E3A9;stroke:#263238;stroke-linecap:round;stroke-linejoin:round;stroke-miterlimit:10;}
	.st8{fill:#263238;}
	.st9{fill:#FFFFFF;}
	.st10{opacity:0.5;fill:#92E3A9;}
	.st11{fill:#999999;stroke:#263238;stroke-linecap:round;stroke-linejoin:round;stroke-miterlimit:10;}
	.st12{fill:#BFBFBF;stroke:#263238;stroke-linecap:round;stroke-linejoin:round;stroke-miterlimit:10;}
	.st13{fill:#FFFFFF;stroke:#263238;stroke-linecap:round;stroke-linejoin:round;stroke-miterlimit:10;}
	.st14{opacity:0.3;clip-path:url(#XMLID_2_);fill-opacity:0.7;}
	.st15{fill:#263238;stroke:#263238;stroke-linecap:round;stroke-linejoin:round;stroke-miterlimit:10;}
	.st16{fill:none;stroke:#263238;stroke-width:0.75;stroke-linecap:round;stroke-linejoin:round;stroke-miterlimit:10;}
	.st17{opacity:0.4;fill:#92E3A9;}
</style>
<g id="Background_Simple">
	<g>
		<path class="st0" d="M67.9,167.1c0,0-27.9,72,11.3,144.5c39.2,72.5,119.9,110.8,184.5,143.5c64.6,32.7,131.7,16.8,163.5-36.8
			c31.9-53.6-11.8-91.9-11.9-168.4c-0.1-76.5,11.4-96.7-30-161.4C344,23.9,242.3,9.6,165.5,57.5C88.6,105.5,67.9,167.1,67.9,167.1z"
			/>
	</g>
	<g>
		<path class="st1" d="M434.1,390.7c-0.1,0.2-0.3,0.4-0.4,0.6c-39.4,57.1-105.6,75-165.7,37.9c-31.3-19.3-75.1-3.8-109.4-5.3
			C40.2,418.7,23.6,263.8,61.1,178.1C94.9,100.7,198.4,60.4,278,75.6c69.9,13.3,129.5,66.1,161.1,128.6c3.2,6.3,6.1,12.7,8.7,19.2
			C469.5,277.8,467.8,341.5,434.1,390.7z"/>
		<path class="st0" d="M434.1,390.7c-0.1,0.2-0.3,0.4-0.4,0.6c-39.4,57.1-105.6,75-165.7,37.9c-31.3-19.3-75.1-3.8-109.4-5.3
			C40.2,418.7,23.6,263.8,61.1,178.1C94.9,100.7,198.4,60.4,278,75.6c69.9,13.3,129.5,66.1,161.1,128.6c3.2,6.3,6.1,12.7,8.7,19.2
			C469.5,277.8,467.8,341.5,434.1,390.7z"/>
	</g>
</g>
<g id="Lines">
	<g>
		<g>
			<line class="st2" x1="250" y1="231" x2="250" y2="228"/>
			<line class="st3" x1="250" y1="222.4" x2="250" y2="147"/>
			<line class="st2" x1="250" y1="144.2" x2="250" y2="141.2"/>
		</g>
	</g>
	<g>
		<path class="st4" d="M268.3,231v-32.2c0-10.4,8.5-18.9,18.9-18.9h86.6"/>
		<path class="st4" d="M231.7,231v-32.2c0-10.4-8.5-18.9-18.9-18.9h-86.6"/>
	</g>
	<path class="st5" d="M252.8,136.2c0,1.5-1.3,2.8-2.8,2.8c-1.5,0-2.8-1.3-2.8-2.8c0-1.5,1.3-2.8,2.8-2.8
		C251.5,133.4,252.8,134.6,252.8,136.2z"/>
	<g>
		<path class="st5" d="M381.8,179.9c0,1.5-1.3,2.8-2.8,2.8s-2.8-1.3-2.8-2.8c0-1.5,1.3-2.8,2.8-2.8S381.8,178.4,381.8,179.9z"/>
		<path class="st5" d="M123.8,179.9c0,1.5-1.3,2.8-2.8,2.8c-1.5,0-2.8-1.3-2.8-2.8c0-1.5,1.3-2.8,2.8-2.8
			C122.5,177.1,123.8,178.4,123.8,179.9z"/>
	</g>
</g>
<g id="Device_4">
	<g>
		<g>
			<g>
				<path class="st6" d="M423.5,140.7v-22c0-1.7-1.4-3.1-3.1-3.1h-18.4c-1.7,0-3.1,1.4-3.1,3.1v22c0,2.2-0.6,4.4-1.6,6.4l0,0v2.1
					h27.8v-2.1l0,0C424.1,145.1,423.5,142.9,423.5,140.7z"/>
				<line class="st5" x1="401.1" y1="137.1" x2="421.5" y2="137.1"/>
				<line class="st5" x1="401.1" y1="122.2" x2="421.5" y2="122.2"/>
			</g>
			<g>
				<path class="st6" d="M399,218.1v22c0,1.7,1.4,3.1,3.1,3.1h18.4c1.7,0,3.1-1.4,3.1-3.1v-22c0-2.2,0.6-4.4,1.6-6.4l0,0v-2.1h-27.8
					v2.1l0,0C398.5,213.7,399,215.9,399,218.1z"/>
				<line class="st5" x1="421.5" y1="221.7" x2="401.1" y2="221.7"/>
				<line class="st5" x1="421.5" y1="236.5" x2="401.1" y2="236.5"/>
			</g>
		</g>
		<path class="st6" d="M434.1,183.9h-4.3v-9.1h4.3c1.4,0,2.5,1.1,2.5,2.5v4.2C436.5,182.8,435.4,183.9,434.1,183.9z"/>
		<path class="st7" d="M422.3,210.1h-22.1c-5.4,0-9.7-4.4-9.7-9.7v-42c0-5.4,4.4-9.7,9.7-9.7h22.1c5.4,0,9.7,4.4,9.7,9.7v42
			C432,205.8,427.7,210.1,422.3,210.1z"/>
		<path class="st8" d="M422.9,204.4h-23.2c-3.4,0-6.2-2.8-6.2-6.2v-37.7c0-3.4,2.8-6.2,6.2-6.2h23.2c3.4,0,6.2,2.8,6.2,6.2v37.7
			C429.1,201.6,426.3,204.4,422.9,204.4z"/>
	</g>
</g>
<g id="Device_3">
	<g>
		<path class="st8" d="M313.7,122.3H186.3v-74c0-2,1.6-3.6,3.6-3.6H310c2,0,3.6,1.6,3.6,3.6V122.3z"/>
		<rect x="187.7" y="48.2" class="st9" width="124.5" height="69"/>
		<rect x="187.7" y="48.2" class="st10" width="124.5" height="69"/>
		<path class="st11" d="M313.7,128.8c-32,0-96,0-127.3,0c-4.3,0-17.1-1.8-17.1-1.8h161.5C330.8,127,318,128.8,313.7,128.8z"/>
		<path class="st12" d="M330.8,127H169.2c-0.6,0-0.7-0.9-0.1-1l17.2-3.7h127.3l17.2,3.7C331.5,126.1,331.4,127,330.8,127z"/>
		<path class="st9" d="M252.7,120.2h-5.5c-0.4,0-0.6-0.3-0.6-0.6l0,0c0-0.4,0.3-0.6,0.6-0.6h5.5c0.4,0,0.6,0.3,0.6,0.6l0,0
			C253.4,119.9,253.1,120.2,252.7,120.2z"/>
		<circle class="st9" cx="250" cy="46.4" r="0.9"/>
		<polygon class="st5" points="320.7,124.7 179.3,124.7 186.7,122.9 313.3,122.9 		"/>
		<g>
			<rect x="188.7" y="48.7" class="st0" width="122.5" height="2.4"/>
			<g>
				<line class="st5" x1="188.7" y1="51.1" x2="311.3" y2="51.1"/>
			</g>
		</g>
		<g>
			<circle class="st0" cx="250" cy="79.4" r="17.7"/>
			<g>
				<path class="st5" d="M251.9,99c-9.9,1-19.1-5.6-21.2-15.6c-2.1-9.9,3.7-19.7,13.1-22.8"/>
				<path class="st5" d="M248.1,59.8c9.9-1,19.1,5.6,21.2,15.6c2.1,9.9-3.7,19.7-13.1,22.8"/>
				<polyline class="st5" points="250,62 247.7,59.7 250,57.4 				"/>
				<polyline class="st5" points="250,96.8 252.3,99.1 250,101.4 				"/>
			</g>
			<g>
				<path class="st8" d="M242,74.4c1.4,0,2.2,0.9,2.2,2.4v0.3h-1.4v-0.4c0-0.7-0.3-0.9-0.7-0.9c-0.5,0-0.7,0.3-0.7,0.9
					c0,0.7,0.3,1.2,1.3,2c1.2,1.1,1.6,1.9,1.6,2.9c0,1.5-0.8,2.4-2.2,2.4c-1.4,0-2.2-0.9-2.2-2.4v-0.6h1.4v0.7
					c0,0.7,0.3,0.9,0.8,0.9c0.5,0,0.8-0.2,0.8-0.9c0-0.7-0.3-1.2-1.3-2c-1.2-1.1-1.6-1.9-1.6-2.9C239.8,75.3,240.5,74.4,242,74.4z"
					/>
				<path class="st8" d="M246.3,80.8l-1.9-6.3h1.5l1.1,4.3h0l1.1-4.3h1.4l-1.9,6.3v3.1h-1.5V80.8z"/>
				<path class="st8" d="M251.5,77.1L251.5,77.1l0,6.8h-1.3v-9.4h1.8l1.5,5.6h0v-5.6h1.3v9.4h-1.5L251.5,77.1z"/>
				<path class="st8" d="M260.2,80.4v1.2c0,1.5-0.7,2.4-2.2,2.4c-1.4,0-2.2-0.9-2.2-2.4v-4.9c0-1.5,0.7-2.4,2.2-2.4
					c1.4,0,2.2,0.9,2.2,2.4v0.9h-1.4v-1c0-0.7-0.3-0.9-0.8-0.9c-0.5,0-0.8,0.3-0.8,0.9v5.1c0,0.7,0.3,0.9,0.8,0.9
					c0.5,0,0.8-0.2,0.8-0.9v-1.3H260.2z"/>
			</g>
			<g>
				<path class="st13" d="M284.6,109.1h-69.2c-1,0-1.8-0.8-1.8-1.8l0,0c0-1,0.8-1.8,1.8-1.8h69.2c1,0,1.8,0.8,1.8,1.8l0,0
					C286.4,108.4,285.6,109.1,284.6,109.1z"/>
				<path class="st7" d="M264.6,109.1h-49.2c-1,0-1.8-0.8-1.8-1.8l0,0c0-1,0.8-1.8,1.8-1.8h49.2c1,0,1.8,0.8,1.8,1.8l0,0
					C266.4,108.4,265.6,109.1,264.6,109.1z"/>
			</g>
		</g>
	</g>
</g>
<g id="Device_1">
	<g>
		<path class="st8" d="M105.4,229.4h-51c-2.2,0-4-1.8-4-4v-92.2c0-2.2,1.8-4,4-4h51c2.2,0,4,1.8,4,4v92.2
			C109.4,227.7,107.6,229.4,105.4,229.4z"/>
		<path class="st7" d="M91,137.2L91,137.2c-0.2,0.7-0.8,1.2-1.5,1.2H70.4c-0.7,0-1.4-0.5-1.5-1.2l0,0c-0.2-0.7-0.8-1.2-1.5-1.2H53.8
			c-0.9,0-1.6,0.7-1.6,1.6v82c0,0.9,0.7,1.6,1.6,1.6h52.3c0.9,0,1.6-0.7,1.6-1.6v-82c0-0.9-0.7-1.6-1.6-1.6H92.5
			C91.8,136,91.2,136.5,91,137.2z"/>
		<g>
			<path class="st9" d="M76.6,135.1c0,0.6-0.5,1.1-1.1,1.1c-0.6,0-1.1-0.5-1.1-1.1c0-0.6,0.5-1.1,1.1-1.1
				C76.1,134.1,76.6,134.5,76.6,135.1z"/>
			<path class="st9" d="M85.4,135.1c0,0.3-0.2,0.5-0.5,0.5c-0.3,0-0.5-0.2-0.5-0.5c0-0.3,0.2-0.5,0.5-0.5
				C85.1,134.6,85.4,134.8,85.4,135.1z"/>
			<rect x="77.4" y="134.7" class="st9" width="5.7" height="0.8"/>
		</g>
	</g>
</g>
<g id="Device_2">
	<g>
		<g>
			<defs>
				<path id="XMLID_747_" d="M289.2,385.1h-78.4l10.5-1.8c4-0.7,6.9-4.2,6.9-8.2v-27.2h43.5v27.2c0,4.1,2.9,7.5,6.9,8.2L289.2,385.1
					z"/>
			</defs>
			<use xlink:href="#XMLID_747_"  style="overflow:visible;fill:#FFFFFF;"/>
			<clipPath id="XMLID_2_">
				<use xlink:href="#XMLID_747_"  style="overflow:visible;"/>
			</clipPath>
			<polygon class="st14" points="271.8,347.9 271.8,370.9 228.2,373.2 228.2,347.9 			"/>
			
				<use xlink:href="#XMLID_747_"  style="overflow:visible;fill:none;stroke:#263238;stroke-linecap:round;stroke-linejoin:round;stroke-miterlimit:10;"/>
		</g>
		<path class="st8" d="M350,364.4H150c-1.9,0-3.5-1.6-3.5-3.5V241.8c0-1.9,1.6-3.5,3.5-3.5h200c1.9,0,3.5,1.6,3.5,3.5v119.2
			C353.5,362.9,351.9,364.4,350,364.4z"/>
		<rect x="148.8" y="243.8" class="st13" width="202.4" height="112.1"/>
		<path class="st9" d="M254.5,360.9h-8.9c-0.6,0-1-0.5-1-1l0,0c0-0.6,0.5-1,1-1h8.9c0.6,0,1,0.5,1,1l0,0
			C255.5,360.4,255,360.9,254.5,360.9z"/>
		<path class="st9" d="M251.5,240.9c0,0.8-0.7,1.5-1.5,1.5s-1.5-0.7-1.5-1.5c0-0.8,0.7-1.5,1.5-1.5S251.5,240.1,251.5,240.9z"/>
		<rect x="210.8" y="385.1" class="st7" width="78.4" height="2.9"/>
		<path class="st7" d="M352.1,410.7H147.9l14.3-14.3c1.7-1.7,3.9-2.6,6.3-2.6h162.9c2.4,0,4.6,0.9,6.3,2.6L352.1,410.7z"/>
		<rect x="147.9" y="410.7" class="st15" width="204.2" height="1.5"/>
		<g>
			<g>
				<polygon class="st16" points="161.2,401 168.2,401 170.4,398.7 163.5,398.7 				"/>
				<polygon class="st16" points="170.7,401 177.7,401 179.6,398.7 172.7,398.7 				"/>
				<polygon class="st16" points="180.1,401 187.2,401 188.8,398.7 182,398.7 				"/>
				<polygon class="st16" points="189.6,401 196.7,401 198.1,398.7 191.2,398.7 				"/>
				<polygon class="st16" points="199.1,401 206.1,401 207.3,398.7 200.4,398.7 				"/>
				<polygon class="st16" points="208.6,401 215.6,401 216.5,398.7 209.6,398.7 				"/>
				<polygon class="st16" points="218.1,401 225.1,401 225.7,398.7 218.9,398.7 				"/>
				<polygon class="st16" points="227.5,401 234.6,401 235,398.7 228.1,398.7 				"/>
				<polygon class="st16" points="237,401 244,401 244.2,398.7 237.3,398.7 				"/>
				<polygon class="st16" points="246.5,401 253.5,401 253.4,398.7 246.6,398.7 				"/>
				<polygon class="st16" points="256,401 263,401 262.7,398.7 255.8,398.7 				"/>
				<polygon class="st16" points="265.4,401 272.5,401 271.9,398.7 265,398.7 				"/>
				<polygon class="st16" points="274.9,401 281.9,401 281.1,398.7 274.3,398.7 				"/>
				<polygon class="st16" points="293.9,401 300.9,401 299.6,398.7 292.7,398.7 				"/>
				<polygon class="st16" points="303.3,401 310.4,401 308.8,398.7 301.9,398.7 				"/>
				<polygon class="st16" points="320.4,398.7 322.3,401 329.3,401 327.3,398.7 				"/>
				<polygon class="st16" points="329.6,398.7 331.8,401 338.8,401 336.5,398.7 				"/>
				<polygon class="st16" points="311.2,398.7 312.8,401 319.9,401 318,398.7 				"/>
				<polygon class="st16" points="283.5,398.7 284.4,401 291.4,401 290.4,398.7 				"/>
			</g>
			<g>
				<polygon class="st16" points="157.4,404.7 164.8,404.7 167.1,402.2 159.9,402.2 				"/>
				<polygon class="st16" points="167.3,404.7 174.7,404.7 176.7,402.2 169.5,402.2 				"/>
				<polygon class="st16" points="177.2,404.7 184.5,404.7 186.3,402.2 179.2,402.2 				"/>
				<polygon class="st16" points="187.1,404.7 194.4,404.7 195.9,402.2 188.8,402.2 				"/>
				<polygon class="st16" points="196.9,404.7 204.3,404.7 205.5,402.2 198.4,402.2 				"/>
				<polygon class="st16" points="206.8,404.7 214.2,404.7 215.1,402.2 208,402.2 				"/>
				<polygon class="st16" points="216.7,404.7 224,404.7 224.7,402.2 217.6,402.2 				"/>
				<polygon class="st16" points="226.6,404.7 233.9,404.7 234.4,402.2 227.2,402.2 				"/>
				<polygon class="st16" points="236.5,404.7 243.8,404.7 244,402.2 236.8,402.2 				"/>
				<polygon class="st16" points="246.3,404.7 253.7,404.7 253.6,402.2 246.4,402.2 				"/>
				<polygon class="st16" points="256.2,404.7 263.5,404.7 263.2,402.2 256,402.2 				"/>
				<polygon class="st16" points="266.1,404.7 273.4,404.7 272.8,402.2 265.6,402.2 				"/>
				<polygon class="st16" points="276,404.7 283.3,404.7 282.4,402.2 275.3,402.2 				"/>
				<polygon class="st16" points="295.7,404.7 303.1,404.7 301.6,402.2 294.5,402.2 				"/>
				<polygon class="st16" points="305.6,404.7 312.9,404.7 311.2,402.2 304.1,402.2 				"/>
				<polygon class="st16" points="325.3,404.7 332.7,404.7 330.5,402.2 323.3,402.2 				"/>
				<polygon class="st16" points="335.2,404.7 342.6,404.7 340.1,402.2 332.9,402.2 				"/>
				<polygon class="st16" points="315.5,404.7 322.8,404.7 320.8,402.2 313.7,402.2 				"/>
				<polygon class="st16" points="285.8,404.7 293.2,404.7 292,402.2 284.9,402.2 				"/>
			</g>
			<g>
				<polygon class="st16" points="153.3,408.7 161,408.7 163.5,406 156.1,406 				"/>
				<polygon class="st16" points="163.7,408.7 171.3,408.7 173.5,406 166.1,406 				"/>
				<polygon class="st16" points="174,408.7 181.6,408.7 183.6,406 176.1,406 				"/>
				<polygon class="st16" points="184.3,408.7 192,408.7 193.6,406 186.1,406 				"/>
				<polygon class="st16" points="256.5,408.7 264.1,408.7 263.7,406 256.3,406 203.6,406 196.2,406 194.6,408.7 202.3,408.7 				
					"/>
				<polygon class="st16" points="266.8,408.7 274.5,408.7 273.8,406 266.3,406 				"/>
				<polygon class="st16" points="277.1,408.7 284.8,408.7 283.8,406 276.3,406 				"/>
				<polygon class="st16" points="297.7,408.7 305.4,408.7 303.8,406 296.4,406 				"/>
				<polygon class="st16" points="328.7,408.7 336.3,408.7 333.9,406 326.5,406 				"/>
				<polygon class="st16" points="339,408.7 346.7,408.7 343.9,406 336.5,406 				"/>
				<polygon class="st16" points="313.9,406 306.4,406 308,408.7 315.7,408.7 318.4,408.7 326,408.7 323.9,406 316.4,406 				"/>
				<polygon class="st16" points="287.4,408.7 295.1,408.7 293.8,406 286.4,406 				"/>
			</g>
			<g>
				<polygon class="st16" points="164.7,397.6 171.4,397.6 173.4,395.5 166.8,395.5 				"/>
				<polygon class="st16" points="173.8,397.6 180.5,397.6 182.3,395.5 175.7,395.5 				"/>
				<polygon class="st16" points="182.9,397.6 189.6,397.6 191.2,395.5 184.6,395.5 				"/>
				<polygon class="st16" points="192,397.6 198.8,397.6 200,395.5 193.4,395.5 				"/>
				<polygon class="st16" points="201.1,397.6 207.9,397.6 208.9,395.5 202.3,395.5 				"/>
				<polygon class="st16" points="210.2,397.6 217,397.6 217.8,395.5 211.2,395.5 				"/>
				<polygon class="st16" points="219.3,397.6 226.1,397.6 226.7,395.5 220.1,395.5 				"/>
				<polygon class="st16" points="228.4,397.6 235.2,397.6 235.5,395.5 228.9,395.5 				"/>
				<polygon class="st16" points="237.5,397.6 244.3,397.6 244.4,395.5 237.8,395.5 				"/>
				<polygon class="st16" points="246.6,397.6 253.4,397.6 253.3,395.5 246.7,395.5 				"/>
				<polygon class="st16" points="255.7,397.6 262.5,397.6 262.2,395.5 255.6,395.5 				"/>
				<polygon class="st16" points="264.8,397.6 271.6,397.6 271.1,395.5 264.5,395.5 				"/>
				<polygon class="st16" points="273.9,397.6 280.7,397.6 279.9,395.5 273.3,395.5 				"/>
				<polygon class="st16" points="292.1,397.6 298.9,397.6 297.7,395.5 291.1,395.5 				"/>
				<polygon class="st16" points="301.2,397.6 308,397.6 306.6,395.5 300,395.5 				"/>
				<polygon class="st16" points="317.7,395.5 319.5,397.6 326.2,397.6 324.3,395.5 				"/>
				<polygon class="st16" points="326.6,395.5 328.6,397.6 335.3,397.6 333.2,395.5 				"/>
				<polygon class="st16" points="308.8,395.5 310.4,397.6 317.1,397.6 315.4,395.5 				"/>
				<polygon class="st16" points="282.2,395.5 283,397.6 289.8,397.6 288.8,395.5 				"/>
			</g>
		</g>
	</g>
</g>
<g id="Left_hand">
	<g>
		<path class="st9" d="M198.8,405.8c-0.5-2.3-0.8-3-4.6-3.9c-3.1-0.8-6.4,0-7.4,0.4c-0.2,0.1-0.3,0.1-0.3,0.1s-0.9-3.2-1.6-4.1
			c-0.7-0.9-3.9-9.5-4.3-10.4c-0.1-0.3-0.7-0.9-1.5-1.5c-1.1-0.8-2.7-1.6-4-1.6h-0.1c-2.3,0-10.7-0.5-10.7-0.5s-1.3-2.4-2.3-3.2
			c-1-0.9-5-1.8-6.1-1.6c-0.1,0-0.2,0.1-0.4,0.1c0,0,0,0,0,0c-1.5,0.7-5.1,3.5-5.1,3.5s-0.1-0.1-0.3-0.3c-0.4-0.4-1-0.9-1.5-0.9
			c-0.7,0-3.8-0.9-5.1-0.3c-0.1,0.1-0.2,0.2-0.3,0.3c-0.5,0.6-3,3.2-5.2,5.5c-1.6,1.6-3.1,3-3.8,3.4c-1.6,1-4.4,1.4-6,1.9
			c-1.6,0.5-6.6,5.4-6.6,5.4c-4.3,0.8-19.3,1.8-29.2,2.3c-5.3,0.3-9.2,0.5-9.2,0.5l9.6,47.7c0,0,1.2-0.4,3.3-1.1
			c9-3.2,33.7-11.7,37.4-12.2c4.5-0.6,6.9-2.8,10.3-3.2c3.4-0.4,6.4-0.9,11.3,0c5,0.9,12.4-2.4,18-3.7c5.6-1.3,8-5.5,9.1-7.6
			c1.1-2.1,2.8-3.4,5.8-4.8c3-1.4,4.1-2.9,6.1-4.2c1.9-1.2,5-3.2,5.1-5.4C198.9,406.2,198.9,406,198.8,405.8z M179.1,405.9
			c0,0-0.6,0.3-1,0c-0.4-0.3-2.1-1.1-2.1-1.1c0.3-0.9-0.3-2.1-0.7-3.1c-0.5-1-1.1-2.9-1.1-2.9s2.2,3.1,2.8,3.5
			c0.6,0.5,0.9,0.5,0.9,0.5S178.3,404.9,179.1,405.9C179,405.8,179,405.8,179.1,405.9z"/>
		<path class="st17" d="M92.1,400.3c10-0.5,24.9-1.4,29.2-2.3c0,0,5-4.9,6.6-5.4c1.6-0.5,4.4-0.9,6-1.9c0.7-0.4,2.2-1.8,3.8-3.4
			c-1.8,2.8-4.2,6.1-5.6,7.4c-2.6,2.4-3.5,0-3.5,0C125.6,400.1,99.6,400.4,92.1,400.3z"/>
		<path class="st17" d="M143.3,381.7c1.3-0.6,4.4,0.3,5.1,0.3c0.5,0,1.2,0.5,1.5,0.9c-0.8,0.7-1.4,1.3-1.4,1.3s-1.5-0.9-3.3-2.1
			C144.6,381.6,144,381.5,143.3,381.7z"/>
		<path class="st17" d="M155.4,379.6c0.2-0.1,0.3-0.1,0.4-0.1c1.2-0.2,5.1,0.8,6.1,1.6c1,0.9,2.3,3.2,2.3,3.2s8.4,0.6,10.7,0.5h0.1
			c0.9,3.2-3.5,4.6-3.5,4.6s-1.1-4.7-5.3-5c-4.2-0.3-5.6,0.8-5.6,0.8c-0.1-3.9-1.5-4.5-4-5.5C156.3,379.6,155.9,379.5,155.4,379.6z"
			/>
		<path class="st17" d="M174.1,398.8c0,0,0.6,1.9,1.1,2.9c0.5,1,1.1,2.1,0.7,3.1c0,0,1.8,0.7,2.1,1.1c-1.3-0.7-3.9-1.9-3.9-1.9
			c0.8-1.9-1.3-9-1.3-9s3.6-0.6,6.2-2.8c1.6-1.3,0.9-3.9,0-5.7c0.8,0.6,1.4,1.1,1.5,1.5c0.3,0.8,3.6,9.5,4.3,10.4
			c0.7,0.9,1.6,4.1,1.6,4.1s0.1,0,0.3-0.1c-2.4,1.3-6,3.2-7.8,3.6c-0.8-1-1.2-2.9-1.2-2.9s-0.3-0.1-0.9-0.5
			C176.3,401.9,174.1,398.8,174.1,398.8z"/>
		<path class="st17" d="M196.5,404.9c1,0.3,1.8,0.9,2.4,1.4c-0.1,2.1-3.2,4.2-5.1,5.4c-2.1,1.3-3.1,2.8-6.1,4.2
			c-3,1.4-4.7,2.7-5.8,4.8c-1.1,2.1-3.5,6.3-9.1,7.6c-5.6,1.3-13.1,4.5-18,3.7c-5-0.9-8-0.4-11.3,0c-3.4,0.4-5.8,2.6-10.3,3.2
			c-3.7,0.5-28.4,9.1-37.4,12.2c9-9.7,37.9-18.9,42.1-18.4c4.6,0.6,12.3-1.3,15.7-2c3.3-0.6,3.9-2,3.9-2c0,1.1-1.2,2.5-1.2,2.5
			s0.9,0.8,2,1.4c1.1,0.6,15.3-2.9,17.8-5.1c2.5-2.1,5.9-6.4,7.2-7.4c1.3-1,8.3-3,9.3-5c1-1.9-1.3-5.9-1.7-6.6
			C190.2,404.3,192.1,403.4,196.5,404.9z"/>
		<path class="st17" d="M200.5,410.8v-0.6C200.6,410.6,200.5,410.8,200.5,410.8z"/>
		<g>
			<path class="st5" d="M82.9,400.8c0,0,31.9-1.4,38.5-2.7c0,0,5-4.9,6.6-5.4c1.6-0.5,4.4-0.9,6-1.9c1.6-1,8.1-7.8,9-8.9
				c0.9-1.1,4.6,0,5.4,0c0.8,0,1.9,1.2,1.9,1.2s4.4-3.5,5.6-3.7c1.2-0.2,5.1,0.8,6.1,1.6c1,0.9,2.3,3.2,2.3,3.2s8.4,0.6,10.7,0.5
				c2.3,0,5.3,2.3,5.7,3.1c0.3,0.8,3.6,9.5,4.3,10.4c0.7,0.9,1.6,4.1,1.6,4.1s3.9-1.4,7.7-0.5c3.8,0.9,4.2,1.6,4.6,3.9
				c0.5,2.3-3,4.6-5.1,5.9c-2.1,1.3-3.1,2.8-6.1,4.2c-3,1.4-4.7,2.7-5.8,4.8c-1.1,2.1-3.5,6.3-9.1,7.6c-5.6,1.3-13.1,4.5-18,3.7
				c-5-0.9-8-0.4-11.3,0c-3.4,0.4-5.8,2.6-10.3,3.2c-4.5,0.6-40.7,13.4-40.7,13.4"/>
			<path class="st5" d="M164.3,384.3c-2.5,0-4.4,1.4-4.4,1.4"/>
			<path class="st5" d="M169.3,385.7c1.5,0.7,2.7,5.1,2.7,5.1"/>
			<path class="st5" d="M173.5,396.2c0,0,0.8,4.2,1.7,5.5s0.7,2.8,0.7,2.8"/>
			<path class="st5" d="M173.5,403.6c0,0,3.3,1.4,4.4,2.2c1.1,0.8,4.6-2,8.6-3.5"/>
			<path class="st5" d="M173.9,397.8c0,0,0.8-0.7,2.5-1c1.7-0.3,3.2-2.9,3.6-4.6"/>
			<path class="st5" d="M179.1,405.9c-0.8-1-1.2-3-1.2-3s-0.3-0.1-0.9-0.5c-0.6-0.5-2.8-3.5-2.8-3.5"/>
			<path class="st5" d="M177.9,402.9c0,0,3,0.3,4.8-1.2"/>
			<path class="st5" d="M150.3,383.2c0,0-1.3,1-3.5,1.8"/>
			<path class="st5" d="M143.4,381.7c1.9-0.2,3.4,1.3,3.7,1.5"/>
			<path class="st5" d="M155.8,379.5c0,0,3.4,0.9,4,1.9c0.7,0.9,0.7,1.9,0.7,1.9"/>
			<path class="st5" d="M121.4,398.1c0,0,3.1,0,4.9-1.2"/>
			<path class="st5" d="M143.4,431.9c0,0,6.6-2,9.2-2.5c2.7-0.5,3.9-2.4,3.9-2.4"/>
			<path class="st5" d="M190.4,407c0,0,1.7,2.2,1.2,4.5"/>
			<path class="st5" d="M179.1,409.2c0,0,2.7,1.6,3.6,5.4"/>
			<path class="st5" d="M150.3,386.3c0,0-6.2,6.7-9.8,8.6"/>
			<path class="st5" d="M160.6,388.2c0,0-6.5,6.8-9.1,8"/>
		</g>
	</g>
</g>
<g id="Right_hand_1_">
	<g>
		<path class="st9" d="M468.8,416c-8.8,0-43.7-0.5-44.3-3.1c-0.6-2.7-2.4-8.2-3.4-8.3c-1-0.1-7.1-4.5-7.1-4.5s-1.4-4.5-3.5-5.1
			c-2.1-0.6-6.6-3.1-6.6-3.1s-2-7.3-2.8-8.1s-5.9-1.6-6.9-1c-1,0.6-4.2,7.1-4.2,7.1c-1.8-0.6-4.9-1.6-6.9-2.4c-2-0.8-4.4-1.2-6-1
			c-1.6,0.2-6,5.3-8,8.7c-2,3.4-1,5.3-1,5.3c-1.8,2-3.6,5.1-3.6,5.1c-0.8,0.4-3.8,0.8-4.4,2c-0.6,1.2-2.4,6.7,0,9.2
			c2.4,2.6,4,6.3,4.5,7.3c0.6,1,14,10.1,18.4,11.3c4.4,1.2,9.5,3.4,9.5,3.4c4.9,2.6,15.4,2.8,27.9,7.1c12.5,4.2,27.4,10.1,43.9,12.9
			"/>
		<path class="st5" d="M370.3,400.5c0,0,2.6,0.6,3.4,2.3"/>
		<g>
			<path class="st17" d="M390.1,389.8c0,0,3.2-6.5,4.1-7.1c0.1-0.1,0.2-0.1,0.4-0.1c0,1.5,0.1,4.4,0.3,6.3c0.1,0.8,3.5,1.1,3.5,1.1
				S395,392.9,390.1,389.8z"/>
			<path class="st17" d="M439.6,452.5c-6.8-2.2-13.2-4.6-19-6.5c-12.5-4.2-23-4.5-27.9-7.1c0,0-5.1-2.2-9.5-3.4
				c-4.4-1.2-17.8-10.3-18.4-11.3c-0.6-1-2.2-4.8-4.5-7.3c-2.4-2.6-0.6-8,0-9.2s3.6-1.6,4.3-2c0,0,0.1-0.2,0.3-0.6c0,0,0,0,0,0
				c0.1-0.1,1.4-0.6,2.3-0.5c1,0.1,2.9,2.1,3.2,3.3c0.3,1.1,4-0.4,3.5-3.9c-0.7-4.4-5.7-3.1-5.7-3.1s0-4.3,5.5-6.4
				c0,0-0.3-1.4,1.2-2.6c0,0,0.7,1.6,3.4,2.2c0,0,1.1-4.8,4-6.9c0.3,0.1,0.6,0.2,0.9,0.3c1,0.4,2.3,0.8,3.5,1.3
				c-1.4,0-2.7,0.8-4.1,1.8c-2.4,1.7-3.2,4.7-3.9,9c-0.6,4.2-3.1,5.9-3.7,7.1c-0.6,1.3-1.3,4-1.3,4s-6.5,1.8-7.3,2.8
				s-2.4,5.6-1.4,8.7s19.9,11.1,22.3,10.7c2.4-0.4,2.9-0.6,2.9-0.6s1.3,4.6,6.6,5.8c5.3,1.3,5.6-1,15.5,1.7
				C418.4,441.4,430,447.7,439.6,452.5z"/>
			<path class="st17" d="M424.5,412.8c-1.4-1.6-3.7-2.5-3.7-2.5s-1.8-3.8-2.5-4c-0.7-0.2-1.6,2.4-2.4,1.4c-0.8-1-2.7-7.8-3.3-9.2
				c-0.6-1.5-1.8-2-3.1-0.9c-1.3,1.1-0.8,9.2-2.4,6.5s-2.4-11.7-2.4-11.7c1.4,0.8,4.1,2.2,5.6,2.6c2.1,0.6,3.5,5.1,3.5,5.1
				s6.1,4.4,7.1,4.5C422.1,404.6,423.9,410.1,424.5,412.8z"/>
			<path class="st17" d="M427.2,414c-1.1,0.1-1.9,0-2.2-0.5c-0.1-0.1-0.1-0.2-0.2-0.3C425.2,413.5,426.1,413.7,427.2,414z"/>
		</g>
		<g>
			<path class="st5" d="M468.8,416c-8.8,0-43.7-0.5-44.3-3.1c-0.6-2.7-2.4-8.2-3.4-8.3c-1-0.1-7.1-4.5-7.1-4.5s-1.4-4.5-3.5-5.1
				c-2.1-0.6-6.6-3.1-6.6-3.1s-2-7.3-2.8-8.1s-5.9-1.6-6.9-1c-1,0.6-4.2,7.1-4.2,7.1c-1.8-0.6-4.9-1.6-6.9-2.4c-2-0.8-4.4-1.2-6-1
				c-1.6,0.2-6,5.3-8,8.7c-2,3.4-1,5.3-1,5.3c-1.8,2-3.6,5.1-3.6,5.1c-0.8,0.4-3.8,0.8-4.4,2c-0.6,1.2-2.4,6.7,0,9.2
				c2.4,2.6,4,6.3,4.5,7.3c0.6,1,14,10.1,18.4,11.3c4.4,1.2,9.5,3.4,9.5,3.4c4.9,2.6,15.4,2.8,27.9,7.1
				c12.5,4.2,27.4,10.1,43.9,12.9"/>
			<path class="st5" d="M364.6,405.6c0,0,2-0.5,2.6-1.1c0.7-0.5,4.2,2.6,3,5.1c0,0,0.5,1.3,3.4,0.9c0,0,0.3-3.1,2.4-5.5
				c2.1-2.4,2.6-7,3.4-10.2"/>
			<path class="st5" d="M374.9,393.5c0,0,0.5,3.7,3.9,4.8"/>
			<path class="st5" d="M368.1,400.5c1.2-1.2,6-3.6,9.4-2.7"/>
			<line class="st5" x1="390.1" y1="389.8" x2="393.1" y2="391.1"/>
			<path class="st5" d="M392.3,390.8c0,0,0.1-2.8,0.8-4"/>
			<path class="st5" d="M364.8,424.2c-0.6-1.1-0.9-8,0.7-9.8"/>
			<path class="st5" d="M368.1,407.7c0,0,1.3-0.1,2.1,2"/>
			<path class="st5" d="M381.6,391.1c0,0,3.7-2.9,6.1-2.1"/>
			<path class="st5" d="M397.6,390.5c0,0,3.6-1.7,6.3,1.3"/>
			<path class="st5" d="M391.6,395.9c0,0,3.8,9.2,6,12"/>
			<path class="st5" d="M405.7,397.5c0,0,1.3,7.5,3,10.3"/>
			<path class="st5" d="M424.5,412.8c0,0-1.8-1.9-4.5-2.9"/>
			<path class="st5" d="M392.7,438.8c0,0-3.8-2.1-3.3-4.9"/>
		</g>
	</g>
</g>
<g id="Layer_9">
</g>
</svg>
